<?xml version="1.0" standalone="no"?>
<!DOCTYPE svg PUBLIC "-//W3C//DTD SVG 20010904//EN"
 "http://www.w3.org/TR/2001/REC-SVG-20010904/DTD/svg10.dtd">
<svg version="1.0" xmlns="http://www.w3.org/2000/svg"
 width="600.000000pt" height="600.000000pt" viewBox="0 0 600.000000 600.000000"
 preserveAspectRatio="xMidYMid meet">
<metadata>
Created by potrace 1.14, written by Peter Selinger 2001-2017
</metadata>
<g transform="translate(0.000000,600.000000) scale(0.100000,-0.100000)"
fill="#000000" stroke="none">
<path d="M3951 5780 c-19 -4 -62 -11 -95 -15 -34 -3 -70 -8 -81 -10 -11 -3
-40 -7 -65 -10 -25 -2 -54 -6 -65 -9 -27 -5 -158 -24 -225 -32 -30 -3 -57 -7
-60 -9 -3 -2 -34 -6 -70 -10 -35 -3 -67 -8 -70 -10 -3 -1 -32 -6 -65 -10 -33
-4 -71 -9 -85 -12 -14 -2 -50 -5 -81 -6 -32 -1 -55 -5 -52 -9 2 -5 -8 -8 -24
-9 -15 0 -37 -2 -48 -5 -11 -2 -72 -11 -135 -19 -63 -9 -126 -18 -140 -20 -73
-12 -89 -14 -135 -20 -27 -3 -78 -10 -113 -16 -35 -5 -67 -7 -73 -4 -5 4 -9 2
-9 -2 0 -5 -9 -9 -21 -10 -11 -1 -53 -7 -92 -12 -40 -6 -90 -13 -112 -16 -23
-3 -52 -8 -65 -10 -14 -3 -49 -7 -77 -9 -29 -3 -56 -7 -60 -9 -5 -3 -32 -7
-61 -11 -67 -8 -118 -15 -162 -22 -71 -12 -107 -17 -210 -28 -25 -3 -58 -8
-75 -11 -32 -7 -89 -15 -117 -18 -9 -1 -15 -4 -13 -8 3 -3 -6 -12 -20 -19 -13
-7 -29 -25 -35 -40 -12 -28 -10 -121 2 -130 3 -3 8 -19 10 -35 2 -17 6 -32 9
-35 4 -3 9 -18 10 -35 2 -16 7 -32 10 -35 14 -10 14 -71 2 -68 -5 1 -28 -1
-53 -5 -25 -4 -65 -9 -90 -12 -127 -15 -165 -30 -197 -74 -25 -33 -30 -89 -12
-123 9 -16 8 -19 -3 -12 -11 6 -11 5 1 -9 7 -9 11 -23 8 -31 -3 -8 -2 -16 4
-18 5 -2 10 -18 12 -36 1 -17 6 -32 11 -32 4 0 6 -13 4 -29 -2 -17 -1 -28 3
-26 4 3 9 -4 12 -15 3 -13 1 -18 -6 -13 -7 4 -6 -1 2 -10 12 -15 11 -17 -10
-16 -13 1 -40 -2 -59 -6 -19 -4 -42 -8 -50 -10 -8 -1 -40 -5 -70 -9 -93 -13
-139 -53 -149 -130 -4 -30 -4 -53 1 -50 8 5 9 0 12 -56 0 -14 4 -27 8 -30 4
-3 10 -21 13 -40 3 -19 10 -52 15 -74 5 -21 6 -45 3 -52 -3 -8 -1 -14 5 -14 5
0 12 -19 15 -42 8 -57 15 -92 27 -123 14 -38 12 -48 -8 -40 -12 4 -11 1 6 -15
12 -11 23 -30 23 -40 1 -11 2 -23 4 -27 9 -35 17 -89 14 -93 -2 -3 -8 -4 -12
-2 -5 1 -6 -2 -2 -8 3 -6 10 -8 14 -6 4 3 14 -20 20 -52 7 -31 22 -95 33 -141
16 -65 18 -89 9 -103 -9 -14 -8 -16 4 -12 10 4 15 0 15 -11 0 -9 -4 -14 -9
-10 -5 3 -13 0 -17 -6 -4 -7 -3 -9 2 -6 16 10 31 -6 37 -42 6 -26 4 -32 -6
-25 -7 5 -6 2 3 -6 8 -8 17 -26 19 -40 6 -42 6 -45 12 -55 3 -5 5 -17 4 -25
-1 -8 3 -26 7 -39 6 -15 4 -29 -4 -39 -9 -11 -9 -13 -1 -9 15 9 23 -4 27 -45
2 -18 6 -40 9 -48 3 -8 9 -33 13 -55 4 -22 9 -47 12 -55 2 -8 5 -31 5 -52 1
-20 5 -34 8 -32 5 3 48 -185 55 -241 1 -11 7 -32 13 -47 8 -21 8 -28 -2 -28
-9 0 -9 -2 0 -8 15 -10 34 -99 25 -120 -3 -10 -1 -13 6 -8 11 6 17 -22 15 -71
-1 -7 4 -13 11 -13 6 0 4 -5 -4 -10 -12 -8 -12 -10 -1 -10 8 0 11 -7 8 -20 -3
-10 -1 -20 5 -22 5 -2 10 -22 11 -45 1 -22 5 -39 10 -36 9 5 4 -27 -6 -44 -5
-9 -3 -11 6 -7 11 4 16 -7 22 -43 4 -26 7 -50 7 -53 0 -3 4 -12 9 -21 5 -10 3
-21 -4 -29 -9 -10 -9 -11 2 -5 11 6 13 2 9 -18 -3 -15 -2 -24 2 -22 10 6 23
-62 15 -75 -3 -6 -2 -10 3 -10 5 0 9 -6 10 -12 1 -19 8 -52 29 -143 10 -44 18
-87 18 -95 0 -8 2 -17 6 -20 4 -3 10 -21 14 -40 7 -34 6 -34 -10 -15 -16 19
-16 19 -3 -5 7 -14 11 -28 10 -32 -1 -5 3 -8 9 -8 8 0 7 -5 -1 -16 -8 -8 -9
-14 -4 -13 23 4 26 -2 8 -17 -15 -12 -15 -14 -2 -11 10 4 18 -1 21 -14 3 -10
1 -17 -4 -13 -5 3 -9 0 -9 -5 0 -6 4 -11 9 -11 14 0 20 -54 8 -68 -8 -10 -7
-12 3 -10 8 2 14 -1 15 -7 0 -5 4 -28 9 -50 8 -42 7 -52 -7 -47 -5 1 -6 -2 -2
-8 3 -6 10 -8 15 -5 9 6 30 -75 33 -128 1 -20 5 -37 10 -37 4 0 7 -7 7 -16 0
-8 -4 -13 -9 -9 -5 3 -13 1 -16 -5 -4 -6 -3 -10 2 -9 31 5 51 -38 29 -62 -8
-9 -8 -10 0 -6 14 8 29 -57 18 -75 -4 -7 -3 -8 4 -4 8 5 12 -2 12 -21 0 -15 7
-50 15 -78 9 -27 13 -55 11 -62 -3 -7 -2 -13 3 -13 5 0 12 -12 15 -26 8 -32
62 -83 96 -91 34 -8 52 -24 46 -40 -4 -8 -1 -11 5 -8 5 4 8 12 6 18 -5 17 263
70 280 55 11 -8 12 -7 6 7 -5 14 -3 17 9 13 9 -4 21 -1 27 5 9 9 14 9 20 -2 6
-10 10 -10 13 -1 3 10 92 34 168 45 14 2 26 4 28 6 8 6 29 4 41 -5 11 -8 13
-8 8 1 -8 13 27 28 43 18 5 -3 10 -2 10 4 0 5 9 8 20 6 11 -2 20 0 20 6 0 5 9
9 21 9 11 0 17 -4 14 -10 -3 -5 -1 -10 4 -10 6 0 11 7 11 16 0 10 6 14 15 10
8 -3 15 0 15 7 0 8 4 6 10 -3 5 -8 10 -10 10 -4 0 6 6 11 13 12 6 0 26 4 42 7
17 3 39 7 50 8 11 1 23 5 26 10 3 4 26 8 52 10 26 1 47 5 47 10 0 4 7 7 16 7
9 0 12 -5 8 -12 -4 -7 2 -5 14 6 12 10 28 16 36 13 8 -3 16 -1 18 4 2 6 11 7
21 4 9 -4 15 -11 12 -15 -3 -5 -1 -11 4 -15 6 -3 8 5 5 20 -4 24 -2 25 30 22
20 -2 33 -1 31 3 -8 13 33 18 46 6 9 -8 10 -8 6 0 -6 10 9 16 68 26 2 0 30 6
61 14 52 12 59 11 70 -4 11 -15 12 -14 7 8 -6 23 -5 24 12 10 10 -8 16 -10 12
-3 -10 17 50 28 69 12 12 -10 13 -9 8 6 -5 12 -4 16 4 11 6 -3 14 -2 17 4 5 8
11 8 20 0 8 -7 14 -7 17 -1 4 12 73 28 115 27 17 -1 29 2 27 5 -2 4 3 9 10 12
9 4 17 -1 19 -11 4 -16 5 -15 6 1 1 10 10 18 24 19 53 4 63 6 77 11 8 3 30 10
48 16 31 10 32 9 28 -16 -3 -14 -2 -22 2 -18 4 3 8 11 8 16 1 5 2 13 3 18 0 5
27 15 59 21 31 6 70 15 86 20 24 8 27 7 22 -8 -6 -16 -5 -16 8 1 14 18 54 28
118 31 20 0 34 4 32 8 -2 3 20 11 49 16 85 17 111 22 126 28 23 8 84 18 114
18 15 1 27 5 27 10 0 4 11 6 25 4 13 -3 22 -1 19 3 -8 13 10 11 25 -4 11 -9
13 -9 7 1 -4 6 -6 12 -4 12 2 0 18 4 36 9 24 7 31 7 25 -2 -4 -8 -1 -7 9 1 9
7 27 14 40 16 13 1 29 6 36 10 7 4 17 4 23 0 6 -3 16 0 21 7 7 11 11 11 15 2
2 -7 9 -13 14 -13 6 0 8 4 4 9 -3 5 4 13 16 16 21 7 43 -11 33 -26 -2 -4 1
-11 8 -15 7 -4 10 -3 5 1 -4 5 1 18 10 29 17 20 17 20 1 7 -13 -9 -18 -10 -18
-2 0 12 6 15 54 26 27 6 28 5 16 -12 -10 -13 -7 -12 10 3 14 12 45 25 70 30
51 9 59 11 63 14 1 1 10 3 21 5 10 2 25 13 33 24 8 12 19 19 24 16 5 -3 6 0 3
8 -3 8 -1 18 5 22 22 13 9 95 -38 238 -32 98 -44 147 -35 143 7 -3 16 0 20 5
3 6 17 9 30 6 13 -2 21 -1 18 4 -2 4 4 8 13 8 10 0 36 4 58 9 22 6 57 13 78
16 48 8 113 40 121 61 3 9 9 14 13 12 23 -14 6 159 -19 189 -5 7 -10 25 -11
42 -1 16 -5 28 -9 25 -7 -4 -12 20 -9 40 0 4 -4 7 -9 7 -5 0 -9 3 -8 8 1 4 -2
18 -6 31 -10 29 -1 37 53 46 35 6 42 5 36 -6 -5 -8 1 -6 12 4 12 10 39 19 66
20 25 1 43 6 40 10 -3 5 5 7 18 6 13 -2 34 3 47 10 13 7 30 10 38 7 8 -3 12
-2 9 3 -3 5 4 16 14 23 24 17 41 58 41 98 0 17 -22 91 -50 166 -27 75 -47 140
-45 145 3 4 0 9 -6 11 -7 2 -12 18 -13 35 0 17 -3 30 -6 28 -3 -2 -17 29 -30
68 -13 40 -26 77 -29 82 -3 6 -6 15 -8 20 -1 6 -15 46 -31 90 -16 44 -44 123
-61 175 -18 52 -35 102 -38 110 -4 8 -7 17 -7 20 -1 3 -6 19 -13 35 -51 131
-83 230 -79 242 3 8 1 11 -4 8 -6 -3 -11 -1 -11 4 -2 14 -4 22 -12 41 -9 24
-89 254 -92 265 -1 6 -8 24 -14 40 -7 17 -14 38 -16 47 -2 9 -8 25 -13 35 -6
10 -12 29 -13 43 -2 14 -7 27 -10 30 -9 7 -82 222 -83 242 0 9 -3 15 -6 13 -4
-2 -15 22 -24 53 -16 52 -67 197 -86 247 -17 43 -38 101 -40 110 -1 6 -7 21
-12 35 -6 14 -11 37 -12 52 0 14 -4 24 -7 22 -8 -4 -71 172 -73 204 0 12 -4
22 -8 22 -4 0 -11 15 -17 33 -5 17 -21 63 -35 102 -14 38 -26 77 -26 87 0 9
-3 18 -7 20 -10 4 -96 247 -97 275 -1 11 -4 19 -8 16 -5 -2 -8 5 -8 17 0 11
-7 32 -16 45 -9 14 -14 34 -11 45 3 11 1 17 -4 14 -5 -3 -12 8 -15 25 -7 35
-57 91 -97 109 -31 13 -103 14 -156 2z"/>
<path d="M519 4273 c-13 -16 -12 -17 4 -4 9 7 17 15 17 17 0 8 -8 3 -21 -13z"/>
<path d="M516 4242 c-3 -5 1 -9 9 -9 8 0 12 4 9 9 -3 4 -7 8 -9 8 -2 0 -6 -4
-9 -8z"/>
<path d="M556 4177 c3 -10 9 -15 12 -12 3 3 0 11 -7 18 -10 9 -11 8 -5 -6z"/>
<path d="M550 4146 c0 -2 7 -7 16 -10 8 -3 12 -2 9 4 -6 10 -25 14 -25 6z"/>
<path d="M575 4031 c-3 -5 -2 -12 3 -15 5 -3 9 1 9 9 0 17 -3 19 -12 6z"/>
<path d="M566 3862 c-3 -5 1 -9 9 -9 8 0 12 4 9 9 -3 4 -7 8 -9 8 -2 0 -6 -4
-9 -8z"/>
<path d="M616 3798 c3 -5 10 -6 15 -3 13 9 11 12 -6 12 -8 0 -12 -4 -9 -9z"/>
<path d="M616 3742 c-3 -5 1 -9 9 -9 8 0 12 4 9 9 -3 4 -7 8 -9 8 -2 0 -6 -4
-9 -8z"/>
<path d="M675 3591 c-3 -5 -2 -12 3 -15 5 -3 9 1 9 9 0 17 -3 19 -12 6z"/>
<path d="M680 3540 c-9 -6 -10 -10 -3 -10 6 0 15 5 18 10 8 12 4 12 -15 0z"/>
<path d="M696 3482 c-3 -5 1 -9 9 -9 8 0 12 4 9 9 -3 4 -7 8 -9 8 -2 0 -6 -4
-9 -8z"/>
<path d="M686 3338 c3 -5 10 -6 15 -3 13 9 11 12 -6 12 -8 0 -12 -4 -9 -9z"/>
<path d="M736 3222 c-3 -4 4 -9 15 -9 23 -2 25 3 4 10 -8 4 -16 3 -19 -1z"/>
<path d="M756 3142 c-3 -5 1 -9 9 -9 8 0 12 4 9 9 -3 4 -7 8 -9 8 -2 0 -6 -4
-9 -8z"/>
<path d="M774 3018 c-4 -7 -3 -10 1 -5 5 4 18 -1 29 -10 21 -18 21 -18 2 5
-22 26 -23 26 -32 10z"/>
<path d="M796 2933 c-6 -14 -5 -15 5 -6 7 7 10 15 7 18 -3 3 -9 -2 -12 -12z"/>
<path d="M830 2841 c0 -6 4 -13 10 -16 6 -3 7 1 4 9 -7 18 -14 21 -14 7z"/>
<path d="M836 2798 c3 -5 10 -6 15 -3 13 9 11 12 -6 12 -8 0 -12 -4 -9 -9z"/>
<path d="M855 2700 c-3 -5 -1 -10 4 -10 6 0 11 5 11 10 0 6 -2 10 -4 10 -3 0
-8 -4 -11 -10z"/>
<path d="M895 2569 c-4 -6 -5 -12 -2 -15 2 -3 7 2 10 11 7 17 1 20 -8 4z"/>
<path d="M910 2466 c0 -2 7 -7 16 -10 8 -3 12 -2 9 4 -6 10 -25 14 -25 6z"/>
<path d="M910 2420 c0 -5 5 -10 11 -10 5 0 7 5 4 10 -3 6 -8 10 -11 10 -2 0
-4 -4 -4 -10z"/>
<path d="M936 2362 c-3 -5 1 -9 9 -9 8 0 12 4 9 9 -3 4 -7 8 -9 8 -2 0 -6 -4
-9 -8z"/>
<path d="M954 2196 c1 -8 5 -18 8 -22 4 -3 5 1 4 10 -1 8 -5 18 -8 22 -4 3 -5
-1 -4 -10z"/>
<path d="M995 2081 c-3 -5 -2 -12 3 -15 5 -3 9 1 9 9 0 17 -3 19 -12 6z"/>
<path d="M5030 2050 c0 -5 5 -10 11 -10 5 0 7 5 4 10 -3 6 -8 10 -11 10 -2 0
-4 -4 -4 -10z"/>
<path d="M1035 1951 c-3 -5 -2 -12 3 -15 5 -3 9 1 9 9 0 17 -3 19 -12 6z"/>
<path d="M1029 1763 c-13 -16 -12 -17 4 -4 9 7 17 15 17 17 0 8 -8 3 -21 -13z"/>
<path d="M1053 1715 c0 -8 4 -12 9 -9 5 3 6 10 3 15 -9 13 -12 11 -12 -6z"/>
<path d="M1095 1620 c3 -5 8 -10 11 -10 2 0 4 5 4 10 0 6 -5 10 -11 10 -5 0
-7 -4 -4 -10z"/>
<path d="M4905 1580 c-3 -6 1 -7 9 -4 18 7 21 14 7 14 -6 0 -13 -4 -16 -10z"/>
<path d="M4777 1555 c-4 -8 -3 -16 1 -19 4 -3 9 4 9 15 2 23 -3 25 -10 4z"/>
<path d="M1175 1220 c3 -5 8 -10 11 -10 2 0 4 5 4 10 0 6 -5 10 -11 10 -5 0
-7 -4 -4 -10z"/>
<path d="M1195 1111 c-3 -5 -2 -12 3 -15 5 -3 9 1 9 9 0 17 -3 19 -12 6z"/>
<path d="M4755 1080 c3 -5 8 -10 11 -10 2 0 4 5 4 10 0 6 -5 10 -11 10 -5 0
-7 -4 -4 -10z"/>
<path d="M4615 1049 c-4 -6 -5 -12 -2 -15 2 -3 7 2 10 11 7 17 1 20 -8 4z"/>
<path d="M1216 1021 c9 -9 34 -9 34 -1 0 5 -9 8 -20 7 -10 -1 -17 -3 -14 -6z"/>
<path d="M4550 1019 c0 -5 5 -7 10 -4 6 3 10 8 10 11 0 2 -4 4 -10 4 -5 0 -10
-5 -10 -11z"/>
<path d="M4353 1007 c0 -8 6 -14 14 -14 9 0 10 4 2 14 -6 7 -12 13 -14 13 -1
0 -2 -6 -2 -13z"/>
<path d="M4271 987 c-8 -10 -7 -14 2 -14 8 0 14 6 14 14 0 7 -1 13 -2 13 -2 0
-8 -6 -14 -13z"/>
<path d="M1240 980 c-9 -6 -10 -10 -3 -10 6 0 15 5 18 10 8 12 4 12 -15 0z"/>
<path d="M4450 986 c0 -2 7 -7 16 -10 8 -3 12 -2 9 4 -6 10 -25 14 -25 6z"/>
<path d="M4114 958 c-4 -7 -4 -10 1 -6 4 4 14 3 22 -4 11 -8 12 -7 7 6 -7 19
-20 21 -30 4z"/>
<path d="M4039 948 c-5 -15 -4 -50 1 -53 3 -2 6 9 6 26 0 24 -3 37 -7 27z"/>
<path d="M4210 939 c0 -5 5 -7 10 -4 6 3 10 8 10 11 0 2 -4 4 -10 4 -5 0 -10
-5 -10 -11z"/>
<path d="M3990 921 c0 -6 4 -13 10 -16 6 -3 7 1 4 9 -7 18 -14 21 -14 7z"/>
<path d="M4080 920 c-9 -6 -10 -10 -3 -10 6 0 15 5 18 10 8 12 4 12 -15 0z"/>
<path d="M4316 913 c-6 -14 -5 -15 5 -6 7 7 10 15 7 18 -3 3 -9 -2 -12 -12z"/>
<path d="M4470 921 c0 -6 4 -13 10 -16 6 -3 7 1 4 9 -7 18 -14 21 -14 7z"/>
<path d="M1236 907 c3 -10 9 -15 12 -12 3 3 0 11 -7 18 -10 9 -11 8 -5 -6z"/>
<path d="M4115 900 c3 -5 8 -10 11 -10 2 0 4 5 4 10 0 6 -5 10 -11 10 -5 0 -7
-4 -4 -10z"/>
<path d="M3810 897 c0 -2 6 -10 14 -16 11 -9 16 -9 22 1 4 7 4 10 -1 6 -4 -4
-14 -3 -22 3 -7 6 -13 9 -13 6z"/>
<path d="M3895 889 c-4 -6 -5 -12 -2 -15 2 -3 7 2 10 11 7 17 1 20 -8 4z"/>
<path d="M3779 873 c-12 -16 -12 -17 2 -6 9 7 20 9 24 5 5 -4 5 -1 1 6 -9 16
-11 15 -27 -5z"/>
<path d="M4355 881 c-3 -5 -2 -12 3 -15 5 -3 9 1 9 9 0 17 -3 19 -12 6z"/>
<path d="M1274 840 c0 -13 4 -16 10 -10 7 7 7 13 0 20 -6 6 -10 3 -10 -10z"/>
<path d="M3615 850 c-4 -6 -15 -8 -26 -5 -10 4 -19 3 -19 -2 0 -15 38 -13 51
3 6 8 9 14 6 14 -3 0 -9 -5 -12 -10z"/>
<path d="M3696 838 c3 -4 11 -5 19 -1 21 7 19 12 -4 10 -11 0 -18 -5 -15 -9z"/>
<path d="M3791 827 c-13 -21 -12 -21 5 -5 10 10 16 20 13 22 -3 3 -11 -5 -18
-17z"/>
<path d="M3490 779 c0 -5 5 -7 10 -4 6 3 10 8 10 11 0 2 -4 4 -10 4 -5 0 -10
-5 -10 -11z"/>
<path d="M1290 760 c0 -5 5 -10 11 -10 5 0 7 5 4 10 -3 6 -8 10 -11 10 -2 0
-4 -4 -4 -10z"/>
<path d="M3177 751 c-10 -14 -10 -14 4 -4 9 7 18 10 21 7 3 -3 8 -1 12 4 9 16
-24 9 -37 -7z"/>
<path d="M3370 759 c0 -5 5 -7 10 -4 6 3 10 8 10 11 0 2 -4 4 -10 4 -5 0 -10
-5 -10 -11z"/>
<path d="M3051 724 c0 -11 3 -14 6 -6 3 7 2 16 -1 19 -3 4 -6 -2 -5 -13z"/>
<path d="M3195 731 c-3 -5 -2 -12 3 -15 5 -3 9 1 9 9 0 17 -3 19 -12 6z"/>
<path d="M3315 729 c-4 -6 -5 -12 -2 -15 2 -3 7 2 10 11 7 17 1 20 -8 4z"/>
<path d="M3353 715 c0 -8 4 -12 9 -9 5 3 6 10 3 15 -9 13 -12 11 -12 -6z"/>
<path d="M2919 693 c-13 -16 -12 -17 4 -4 16 13 21 21 13 21 -2 0 -10 -8 -17
-17z"/>
<path d="M2849 684 c-13 -16 -25 -64 -13 -52 3 3 6 13 8 21 1 8 8 22 15 31 7
9 11 16 8 16 -2 0 -11 -7 -18 -16z"/>
<path d="M2956 678 c3 -5 10 -6 15 -3 13 9 11 12 -6 12 -8 0 -12 -4 -9 -9z"/>
<path d="M2933 665 c0 -8 4 -12 9 -9 5 3 6 10 3 15 -9 13 -12 11 -12 -6z"/>
<path d="M3013 663 c4 -3 1 -13 -6 -22 -11 -14 -10 -14 5 -2 16 12 16 31 1 31
-4 0 -3 -3 0 -7z"/>
<path d="M2773 645 c0 -8 4 -12 9 -9 5 3 6 10 3 15 -9 13 -12 11 -12 -6z"/>
<path d="M1310 626 c0 -2 7 -7 16 -10 8 -3 12 -2 9 4 -6 10 -25 14 -25 6z"/>
<path d="M3039 613 c-13 -16 -12 -17 4 -4 16 13 21 21 13 21 -2 0 -10 -8 -17
-17z"/>
<path d="M2526 598 c3 -5 10 -6 15 -3 13 9 11 12 -6 12 -8 0 -12 -4 -9 -9z"/>
<path d="M1333 569 c-2 -23 3 -25 10 -4 4 8 3 16 -1 19 -4 3 -9 -4 -9 -15z"/>
<path d="M2400 580 c-9 -6 -10 -10 -3 -10 6 0 15 5 18 10 8 12 4 12 -15 0z"/>
<path d="M2507 579 c7 -7 15 -10 18 -7 3 3 -2 9 -12 12 -14 6 -15 5 -6 -5z"/>
<path d="M1296 567 c3 -10 9 -15 12 -12 3 3 0 11 -7 18 -10 9 -11 8 -5 -6z"/>
<path d="M2375 540 c3 -5 8 -10 11 -10 2 0 4 5 4 10 0 6 -5 10 -11 10 -5 0 -7
-4 -4 -10z"/>
<path d="M2410 539 c0 -5 5 -7 10 -4 6 3 10 8 10 11 0 2 -4 4 -10 4 -5 0 -10
-5 -10 -11z"/>
<path d="M2455 539 c-3 -4 2 -6 10 -5 21 3 28 13 10 13 -9 0 -18 -4 -20 -8z"/>
<path d="M2273 515 c0 -8 4 -12 9 -9 5 3 6 10 3 15 -9 13 -12 11 -12 -6z"/>
<path d="M2060 506 c0 -2 8 -10 18 -17 15 -13 16 -12 3 4 -13 16 -21 21 -21
13z"/>
<path d="M2215 500 c3 -5 8 -10 11 -10 2 0 4 5 4 10 0 6 -5 10 -11 10 -5 0 -7
-4 -4 -10z"/>
<path d="M2035 480 c3 -5 8 -10 11 -10 2 0 4 5 4 10 0 6 -5 10 -11 10 -5 0 -7
-4 -4 -10z"/>
<path d="M1773 447 c0 -8 6 -14 14 -14 9 0 10 4 2 14 -6 7 -12 13 -14 13 -1 0
-2 -6 -2 -13z"/>
<path d="M1325 440 c-3 -6 1 -7 9 -4 18 7 21 14 7 14 -6 0 -13 -4 -16 -10z"/>
<path d="M1730 441 c0 -6 4 -13 10 -16 6 -3 7 1 4 9 -7 18 -14 21 -14 7z"/>
<path d="M1395 431 c-3 -5 -2 -12 3 -15 5 -3 9 1 9 9 0 17 -3 19 -12 6z"/>
<path d="M1435 421 c-3 -5 -2 -12 3 -15 5 -3 9 1 9 9 0 17 -3 19 -12 6z"/>
<path d="M1633 415 c0 -8 4 -12 9 -9 4 3 8 9 8 15 0 5 -4 9 -8 9 -5 0 -9 -7
-9 -15z"/>
<path d="M1455 380 c3 -5 8 -10 11 -10 2 0 4 5 4 10 0 6 -5 10 -11 10 -5 0 -7
-4 -4 -10z"/>
<path d="M1650 379 c0 -5 5 -7 10 -4 6 3 10 8 10 11 0 2 -4 4 -10 4 -5 0 -10
-5 -10 -11z"/>
</g>
</svg>
